<?xml version="1.0" standalone="no"?>
<!DOCTYPE svg PUBLIC "-//W3C//DTD SVG 20010904//EN"
 "http://www.w3.org/TR/2001/REC-SVG-20010904/DTD/svg10.dtd">
<svg version="1.0" xmlns="http://www.w3.org/2000/svg"
 width="1024.000000pt" height="1024.000000pt" viewBox="0 0 1024.000000 1024.000000"
 preserveAspectRatio="xMidYMid meet">

<g transform="translate(0.000000,1024.000000) scale(0.100000,-0.100000)"
fill="#000000" stroke="none">
<path d="M4710 10225 c-724 -66 -1306 -227 -1913 -531 -985 -494 -1811 -1333
-2293 -2329 -209 -432 -367 -932 -433 -1370 -12 -77 -26 -169 -31 -205 -22
-141 -40 -453 -40 -686 0 -1116 348 -2170 1009 -3054 273 -365 656 -750 1022
-1028 757 -573 1719 -934 2672 -1003 391 -28 651 -23 1042 22 699 79 1399 316
2010 679 940 559 1710 1456 2116 2465 240 598 369 1276 369 1937 0 818 -172
1564 -525 2277 -184 373 -392 691 -673 1031 -122 148 -462 486 -622 619 -781
652 -1680 1035 -2725 1162 -218 27 -763 35 -985 14z m739 -1920 c36 -9 74 -20
83 -25 10 -6 24 -10 32 -10 8 0 17 -3 19 -7 3 -5 -11 -8 -31 -8 -27 0 -37 -4
-37 -16 0 -29 -33 -52 -63 -43 -15 4 -30 7 -33 6 -4 -1 -4 8 -1 20 3 14 1 19
-6 14 -6 -3 -9 -15 -7 -26 3 -15 -2 -20 -16 -20 -30 0 -16 -49 14 -50 5 0 5 5
2 10 -3 6 1 10 9 10 9 0 15 -5 14 -11 -2 -7 20 -21 47 -32 175 -70 352 -145
423 -178 46 -22 85 -39 87 -39 5 0 193 -89 430 -205 121 -59 263 -127 315
-152 328 -154 679 -336 741 -385 20 -15 40 -28 44 -28 3 0 57 -38 119 -84 126
-94 251 -215 387 -374 50 -59 114 -134 142 -166 31 -36 44 -57 32 -52 -225 95
-556 101 -800 13 -22 -8 -81 -35 -130 -60 -103 -51 -256 -108 -288 -106 l-22
2 22 4 c14 3 20 9 17 18 -3 8 -12 11 -19 9 -7 -3 -16 4 -20 15 -3 12 -15 21
-26 21 -20 0 -26 -15 -9 -25 6 -4 7 -11 4 -17 -4 -6 1 -17 11 -25 11 -7 14
-13 8 -13 -7 0 -15 5 -18 10 -4 6 -10 8 -14 5 -5 -2 -6 7 -3 22 3 18 1 24 -7
19 -14 -9 -14 3 2 37 6 15 18 27 25 27 7 0 11 4 8 9 -3 4 3 27 14 49 40 82 75
202 86 297 16 128 -57 284 -189 406 -196 181 -579 358 -865 400 -109 15 -346
7 -427 -16 -128 -36 -284 -123 -372 -208 -31 -29 -39 -43 -30 -49 18 -13 -35
0 -143 34 -149 47 -290 78 -350 78 -33 0 -150 -23 -295 -59 -132 -32 -303 -71
-380 -86 -77 -15 -160 -35 -185 -44 -25 -10 -160 -93 -300 -186 -411 -272
-677 -427 -805 -470 -153 -51 -295 -15 -295 76 0 24 34 84 63 113 12 12 175
149 267 226 132 110 475 401 539 459 229 206 320 258 596 341 535 161 653 206
1037 394 53 27 108 49 121 50 14 0 23 4 20 9 -2 4 -2 7 1 7 2 0 12 3 22 7 13
5 16 3 11 -10 -7 -18 -8 -18 106 -38 37 -6 70 -9 74 -6 3 3 12 0 20 -8 21 -22
35 -18 29 8 -3 12 -3 16 0 10 9 -20 24 -15 24 6 0 17 -7 19 -50 18 -46 -2 -50
0 -50 20 0 20 4 22 33 18 30 -5 30 -4 -8 10 -37 15 -44 14 -96 -5 -62 -22 -85
-26 -54 -8 45 26 163 57 219 58 33 0 89 -7 125 -15z m-246 -52 c-7 -3 -13 -9
-13 -15 0 -6 8 -7 18 -3 13 5 14 3 5 -5 -8 -9 -16 -9 -30 -1 -10 6 -13 11 -8
11 6 1 1 5 -10 10 -16 6 -13 8 15 7 19 0 29 -2 23 -4z m424 -9 c-3 -3 -12 -4
-19 -1 -8 3 -5 6 6 6 11 1 17 -2 13 -5z m-467 -8 c0 -2 -9 -6 -20 -9 -11 -3
-18 -1 -14 4 5 9 34 13 34 5z m280 -56 c12 -8 11 -10 -7 -10 -13 0 -23 5 -23
10 0 13 11 13 30 0z m-740 -840 c15 0 -19 -24 -52 -36 -10 -3 -18 -10 -18 -15
0 -5 -6 -9 -14 -9 -8 0 -16 -4 -18 -8 -1 -5 -34 -26 -73 -47 -296 -162 -444
-262 -565 -381 -228 -223 -382 -324 -495 -324 -43 0 -95 16 -95 30 0 8 59 63
140 130 30 25 95 81 145 125 49 44 115 101 145 125 30 25 57 47 60 50 13 14
193 141 260 183 41 26 86 56 100 67 14 11 32 20 41 20 8 0 19 4 25 9 9 9 268
75 329 84 17 2 39 3 50 1 11 -2 27 -4 35 -4z m-625 -128 c-6 -5 -66 -49 -135
-97 -69 -49 -127 -91 -130 -95 -3 -3 -45 -39 -95 -80 -73 -61 -240 -208 -479
-423 -198 -178 -340 -244 -450 -207 -36 11 -66 34 -66 49 0 5 28 28 63 51 99
69 265 208 349 291 42 43 112 99 154 126 42 26 177 114 300 195 234 153 224
149 399 182 88 17 101 18 90 8z m1688 -289 c-7 -2 -19 -2 -25 0 -7 3 -2 5 12
5 14 0 19 -2 13 -5z m-53 -7 c0 -8 -51 -13 -56 -5 -3 5 9 9 25 9 17 0 31 -2
31 -4z m-212 -23 c-19 -5 -25 -23 -7 -23 5 0 7 -4 4 -10 -3 -5 -2 -10 4 -10 5
0 11 5 13 12 2 6 10 8 17 4 9 -6 8 -11 -6 -22 -10 -7 -14 -14 -9 -14 5 0 2 -8
-5 -17 -12 -16 -12 -17 2 -6 9 7 19 10 22 6 4 -3 7 1 7 9 0 9 7 18 15 22 12 4
12 0 -2 -22 -10 -15 -25 -32 -33 -39 -8 -6 -12 -15 -8 -19 4 -4 15 -1 25 7 15
12 16 12 10 -3 -3 -10 -2 -20 3 -23 6 -4 10 -12 10 -18 0 -7 -7 -4 -14 6 -9
12 -16 14 -21 8 -3 -6 -1 -11 6 -11 9 0 9 -3 0 -14 -10 -12 -9 -13 8 -9 15 4
20 0 18 -15 -1 -14 -7 -18 -22 -14 -20 4 -20 4 0 -12 20 -16 20 -17 -3 -14
-12 2 -22 7 -22 12 3 16 -31 29 -43 16 -9 -8 -8 -10 6 -5 21 9 23 -8 2 -25
-17 -14 -20 -30 -6 -30 5 0 13 9 16 20 4 11 11 18 16 14 6 -4 6 -11 -1 -19 -7
-8 -9 -18 -7 -23 3 -4 2 -14 -4 -22 -6 -10 -9 -11 -9 -2 0 6 -4 12 -9 12 -5 0
-7 -9 -4 -20 3 -11 10 -20 15 -20 5 0 1 -11 -9 -24 -10 -13 -21 -22 -25 -20
-4 2 -9 0 -13 -6 -3 -5 3 -10 14 -10 12 0 21 -5 21 -11 0 -5 -5 -7 -11 -3 -6
3 -21 1 -34 -6 -19 -10 -21 -15 -11 -36 6 -13 16 -22 23 -19 9 3 10 -2 2 -19
-9 -19 -21 -24 -71 -30 -34 -3 -80 -6 -104 -6 -38 0 -42 2 -39 20 2 11 -3 56
-11 101 -9 44 -14 83 -11 85 3 3 14 6 26 7 23 1 39 27 17 27 -9 0 -12 7 -9 20
3 11 0 20 -5 20 -15 0 -35 -38 -27 -50 3 -6 2 -10 -2 -10 -5 0 -15 17 -22 38
-25 74 -53 125 -101 188 -28 35 -50 66 -50 68 0 3 28 7 63 9 94 5 425 5 405 0z
m92 -109 c0 -2 -7 -4 -15 -4 -8 0 -15 4 -15 10 0 5 7 7 15 4 8 -4 15 -8 15
-10z m16 -26 c4 -7 3 -8 -5 -4 -7 4 -15 -2 -20 -16 -10 -23 -10 -23 -10 -1 -1
12 5 24 12 26 6 3 13 6 14 6 1 1 5 -4 9 -11z m-2646 -139 c-14 -11 -36 -29
-48 -40 -84 -72 -237 -175 -317 -215 -80 -40 -105 -48 -169 -52 -48 -3 -87 0
-105 8 -30 12 -61 62 -61 97 1 26 35 93 65 126 l26 29 39 -36 c21 -19 58 -40
82 -47 97 -26 251 12 413 101 99 54 112 59 75 29z m2475 -149 c-3 -5 -1 -10 4
-10 6 0 11 -5 11 -11 0 -8 -5 -8 -15 1 -13 11 -12 30 1 30 3 0 2 -4 -1 -10z
m1484 -187 c2 -2 -5 -3 -17 -3 -14 0 -22 6 -22 16 0 14 3 15 18 3 9 -7 19 -15
21 -16z m589 -1065 l-3 -363 -48 -3 c-45 -3 -48 -2 -53 26 l-6 30 -51 -32
c-43 -26 -60 -31 -116 -31 -102 0 -183 51 -222 140 -94 215 75 442 283 381 30
-8 63 -25 73 -36 10 -11 22 -20 27 -20 4 0 8 61 8 135 l0 135 55 0 55 0 -2
-362z m-4823 303 c76 -36 140 -98 173 -169 21 -45 27 -76 30 -145 4 -86 3 -92
-32 -162 -68 -138 -169 -198 -336 -199 -86 -1 -101 2 -160 30 -106 51 -166
118 -195 218 -35 121 -1 265 81 349 113 114 292 146 439 78z m2402 21 c9 -5
13 -51 15 -147 l3 -140 185 0 185 0 3 140 c2 96 6 142 15 147 16 10 78 10 95
0 9 -7 12 -83 10 -348 l-3 -339 -55 0 -55 0 -3 143 -3 142 -189 0 -189 0 -3
-142 -3 -143 -52 -3 -53 -3 0 345 c0 266 3 345 13 349 19 8 71 7 84 -1z
m-1694 -176 c111 -33 171 -124 171 -256 0 -57 -5 -88 -23 -128 -63 -141 -235
-187 -358 -95 l-32 24 -3 -123 -3 -123 -55 0 -55 0 0 350 0 350 53 3 52 3 0
-30 c0 -17 2 -31 4 -31 3 0 24 13 48 29 63 42 124 50 201 27z m664 -15 c40
-20 78 -57 107 -104 16 -27 36 -142 28 -165 -3 -9 -61 -12 -203 -12 -183 0
-199 -1 -199 -17 0 -26 33 -72 66 -94 45 -29 134 -26 195 8 l49 26 25 -23 c30
-28 31 -41 8 -62 -100 -88 -277 -89 -374 -1 -56 50 -81 105 -87 186 -9 132 69
246 193 278 47 13 150 2 192 -20z m636 15 c49 -20 93 -77 106 -136 6 -28 11
-122 11 -209 0 -178 3 -171 -76 -171 l-44 0 0 171 c0 187 -9 226 -56 248 -59
27 -150 3 -175 -47 -10 -19 -16 -80 -19 -197 l-5 -170 -55 0 -55 0 -3 258 -2
258 57 -3 c55 -3 58 -4 61 -31 l3 -27 42 29 c23 16 51 31 62 34 40 10 117 7
148 -7z m1368 3 c40 -9 62 -21 94 -54 37 -37 44 -51 55 -111 6 -39 10 -130 8
-209 l-3 -140 -50 0 c-44 0 -50 3 -53 23 -2 12 -5 22 -7 22 -1 0 -29 -14 -61
-31 -52 -27 -66 -30 -120 -26 -77 6 -134 37 -163 87 -35 63 -25 134 26 188 29
31 83 42 198 42 l115 0 0 28 c0 37 -25 71 -66 88 -50 21 -94 17 -154 -13 l-53
-26 -24 27 c-12 15 -23 31 -23 36 0 17 89 61 137 70 70 11 86 11 144 -1z m723
-23 c60 -45 69 -80 74 -273 3 -94 2 -183 -2 -198 -6 -24 -10 -26 -59 -23 l-52
3 -5 183 -5 184 -33 29 c-39 35 -100 39 -149 9 -53 -32 -58 -50 -63 -235 l-5
-170 -52 -3 -53 -3 0 261 0 261 53 -3 c48 -3 52 -5 55 -30 l3 -27 39 26 c52
33 92 43 163 38 43 -2 66 -10 91 -29z m1150 19 c55 -14 116 -48 116 -63 0 -4
-10 -20 -23 -35 l-23 -29 -40 21 c-23 12 -63 24 -90 27 -65 7 -98 -11 -102
-53 -4 -38 17 -52 123 -78 123 -30 162 -63 171 -141 8 -63 -21 -109 -90 -143
-64 -32 -129 -37 -202 -16 -60 17 -134 58 -134 74 0 5 12 23 26 40 l25 30 41
-27 c33 -21 55 -27 113 -30 68 -4 73 -3 93 23 12 15 22 31 22 36 0 19 -46 48
-94 60 -152 35 -206 77 -206 157 0 57 27 105 72 128 72 37 116 41 202 19z
m-4861 -1332 c-153 -138 -222 -389 -158 -580 63 -187 187 -305 499 -477 138
-76 371 -159 539 -191 98 -19 320 -21 427 -4 158 24 324 102 442 207 32 28 63
52 68 52 4 0 50 -16 100 -35 118 -45 359 -120 439 -136 69 -15 62 -16 381 60
96 23 254 57 350 77 96 19 194 41 217 49 40 13 140 76 288 181 81 57 349 238
460 310 124 80 275 158 370 189 99 34 218 33 255 0 37 -33 43 -62 22 -108 -22
-50 -59 -85 -352 -337 -80 -68 -201 -174 -270 -235 -69 -60 -163 -143 -210
-184 -47 -41 -101 -88 -120 -105 -183 -162 -284 -215 -570 -296 -370 -104
-671 -210 -930 -324 -57 -26 -118 -47 -135 -48 -87 -2 -488 100 -600 152 -11
5 -54 23 -95 39 -267 103 -697 294 -1099 487 -84 41 -155 74 -157 74 -2 0 -47
20 -101 45 -54 25 -129 60 -168 78 -114 51 -390 194 -473 244 -237 144 -409
298 -677 606 -37 42 -72 77 -78 77 -6 0 -8 2 -5 5 2 3 45 -9 94 -26 128 -45
218 -58 401 -59 220 0 317 22 531 122 99 46 297 118 327 118 16 0 15 -4 -12
-27z m4812 -57 c48 -48 43 -115 -15 -195 l-30 -41 -34 34 c-88 88 -271 68
-503 -54 -51 -27 -93 -47 -93 -45 0 5 182 149 230 182 152 103 246 142 348
143 64 0 76 -3 97 -24z m-476 -4 c19 -9 36 -21 37 -27 2 -5 -26 -30 -62 -55
-36 -25 -71 -50 -78 -56 -21 -20 -61 -38 -76 -36 -12 2 -12 1 -2 -6 10 -7 5
-15 -20 -34 -18 -14 -80 -72 -138 -128 -93 -91 -274 -230 -300 -230 -6 0 -10
-6 -10 -12 0 -9 -4 -8 -10 2 -8 13 -10 12 -10 -3 0 -15 -3 -16 -20 -7 -16 9
-20 8 -20 -5 0 -10 5 -14 13 -10 6 4 1 -3 -12 -14 -13 -12 -26 -19 -30 -16 -3
3 0 10 7 14 10 6 10 11 -3 21 -13 11 -15 10 -10 -1 3 -8 -4 -20 -16 -27 -12
-8 -18 -9 -15 -3 4 5 1 13 -5 17 -8 4 -9 3 -5 -4 4 -7 3 -12 -3 -12 -11 0 -9
-19 3 -39 7 -10 4 -12 -13 -6 -17 5 -20 3 -14 -11 5 -13 3 -16 -10 -11 -10 4
-16 2 -14 -6 1 -7 -6 -11 -15 -11 -10 1 -16 -2 -15 -6 1 -4 -2 -8 -7 -8 -5 0
-13 -8 -18 -17 -6 -10 -16 -14 -29 -10 -15 5 -18 3 -12 -12 6 -16 5 -16 -11
-4 -11 9 -20 11 -24 5 -9 -13 -74 -53 -87 -53 -5 0 -11 -5 -13 -13 -3 -10 -1
-10 5 -1 5 7 14 9 22 3 10 -6 -6 -15 -53 -29 -78 -24 -107 -26 -125 -8 -11 10
-13 9 -8 -4 4 -12 -6 -19 -45 -28 -28 -6 -53 -10 -55 -7 -2 2 13 14 34 27 21
13 40 25 43 28 3 4 14 12 25 19 11 7 33 21 49 31 16 11 36 17 44 13 11 -4 13
-1 7 7 -10 17 14 32 40 24 17 -5 18 -4 7 10 -20 23 5 33 29 11 18 -16 19 -16
13 -1 -4 12 -1 17 10 17 9 0 16 5 16 10 0 6 -7 10 -15 10 -8 0 -15 -4 -15 -10
0 -5 -4 -10 -10 -10 -20 0 -9 15 33 47 23 18 57 46 75 63 18 18 37 28 44 24 6
-4 8 -3 5 3 -4 6 37 51 90 100 54 48 111 102 129 118 262 251 358 326 469 366
64 23 159 23 204 1z m-5680 -138 c7 5 9 -7 11 -69 3 -67 -2 -72 -15 -20 -13
48 -19 123 -8 97 2 -6 8 -10 12 -8z m3190 -129 c2 -82 27 -148 83 -217 43 -53
45 -58 21 -58 -9 0 -24 -7 -33 -15 -14 -13 -58 -16 -240 -19 -124 -2 -216 0
-208 5 7 5 21 9 30 9 9 0 20 9 23 21 6 17 9 18 22 7 13 -10 17 -10 20 0 3 6 8
10 13 7 11 -7 33 22 25 35 -3 6 -12 7 -18 3 -7 -4 -6 1 2 11 11 13 16 14 24 4
6 -9 7 -7 3 6 -5 15 -4 17 7 8 18 -15 30 -3 16 15 -9 10 -8 13 5 13 9 0 16 7
16 16 0 8 -4 12 -10 9 -5 -3 -10 -1 -10 4 0 11 13 15 36 12 6 -1 17 6 24 14 7
8 19 15 28 15 8 0 12 3 9 6 -3 4 -2 15 4 25 7 14 6 19 -3 20 -10 0 -10 2 0 6
6 2 12 12 12 21 0 13 2 14 9 4 5 -8 17 -12 27 -10 15 3 19 12 19 41 0 26 4 36
13 32 6 -2 12 3 13 13 1 34 18 -21 18 -63z m-79 35 c0 -5 -2 -10 -4 -10 -3 0
-8 5 -11 10 -3 6 -1 10 4 10 6 0 11 -4 11 -10z m-80 -110 c-6 -12 -16 -17 -26
-13 -12 4 -11 8 8 18 13 7 24 13 26 14 1 1 -2 -8 -8 -19z m-91 -81 c-10 -6
-10 -9 -2 -9 19 0 4 -27 -18 -33 -23 -6 -24 -3 -2 33 9 16 21 26 26 23 5 -3 3
-9 -4 -14z m364 -136 c-7 -2 -19 -2 -25 0 -7 3 -2 5 12 5 14 0 19 -2 13 -5z
m1427 -232 c0 -5 -7 -11 -14 -14 -10 -4 -13 -1 -9 9 6 15 23 19 23 5z m-45
-30 c-3 -6 -11 -11 -16 -11 -5 0 -4 6 3 14 14 16 24 13 13 -3z"/>
<path d="M5380 8261 c0 -6 4 -13 10 -16 6 -3 7 1 4 9 -7 18 -14 21 -14 7z"/>
<path d="M5340 8215 c0 -8 2 -15 4 -15 2 0 6 7 10 15 3 8 1 15 -4 15 -6 0 -10
-7 -10 -15z"/>
<path d="M5335 8170 c-19 -8 -19 -9 3 -9 12 -1 22 4 22 9 0 6 -1 10 -2 9 -2 0
-12 -4 -23 -9z"/>
<path d="M6984 6402 c3 -5 0 -13 -6 -15 -9 -4 -10 -6 -1 -6 17 -1 25 16 12 25
-7 4 -9 3 -5 -4z"/>
<path d="M5437 6849 c7 -7 15 -10 18 -7 3 3 -2 9 -12 12 -14 6 -15 5 -6 -5z"/>
<path d="M5425 6600 c-3 -5 1 -10 9 -10 9 0 16 5 16 10 0 6 -4 10 -9 10 -6 0
-13 -4 -16 -10z"/>
<path d="M7173 5259 c-68 -43 -92 -159 -50 -239 30 -57 76 -82 143 -77 68 5
110 35 125 90 14 51 5 161 -15 192 -35 53 -144 72 -203 34z"/>
<path d="M2430 5437 c-53 -17 -135 -105 -149 -160 -45 -182 62 -329 243 -330
73 0 119 18 174 68 57 51 76 105 70 202 -4 64 -9 86 -32 120 -31 47 -87 89
-137 103 -43 13 -124 11 -169 -3z"/>
<path d="M3221 5267 c-47 -24 -66 -62 -69 -146 -6 -124 39 -181 142 -181 94 0
155 69 156 173 0 102 -59 167 -151 167 -30 0 -65 -6 -78 -13z"/>
<path d="M3871 5273 c-39 -20 -67 -55 -77 -95 l-6 -28 145 0 146 0 -9 29 c-4
15 -13 37 -18 48 -28 52 -122 76 -181 46z"/>
<path d="M5904 5076 c-61 -27 -65 -108 -7 -135 57 -26 155 -5 187 40 9 13 16
43 16 66 l0 43 -82 0 c-47 -1 -97 -7 -114 -14z"/>
<path d="M6610 3430 c-20 -21 -47 -57 -36 -48 5 4 15 3 23 -3 10 -9 13 -8 13
5 0 9 7 19 15 22 8 4 12 11 8 18 -4 6 1 5 10 -3 14 -11 20 -11 32 -1 8 7 15
17 15 22 0 14 -64 5 -80 -12z"/>
<path d="M6231 3150 c-7 -4 1 -7 18 -8 17 0 31 1 31 3 0 7 -39 12 -49 5z"/>
<path d="M4890 3709 c0 -5 5 -7 10 -4 6 3 10 8 10 11 0 2 -4 4 -10 4 -5 0 -10
-5 -10 -11z"/>
<path d="M4606 3422 c-3 -4 4 -9 15 -9 23 -2 25 3 4 10 -8 4 -16 3 -19 -1z"/>
</g>
</svg>
